<svg xmlns="http://www.w3.org/2000/svg" viewBox="0 0 1800 1000" width="1800" height="1000" style="background-color: #0F172A; font-family: 'Inter', sans-serif;">
  <defs>
    <style>
      .bg-canvas { fill: #0F172A; }
      .bg-screen { fill: #F1F5F9; }
      .border-cool { stroke: #E2E8F0; stroke-width: 1px; fill: none; }
      .text-primary { fill: #0F172A; font-family: 'Inter', sans-serif; }
      .text-muted { fill: #64748B; font-family: 'Inter', sans-serif; }
      .text-white { fill: #FFFFFF; font-family: 'Inter', sans-serif; }
      .text-brand { fill: #1D4ED8; font-weight: bold; font-family: 'Inter', sans-serif; }
      .btn-primary { fill: #1D4ED8; }
      .btn-danger { fill: #EF4444; }
      .btn-success { fill: #10B981; }
      .card-bg { fill: #FFFFFF; stroke: #E2E8F0; stroke-width: 1px; }
      .sidebar-bg { fill: #1E293B; }
      .sidebar-active { fill: #334155; }
      .chart-bar { fill: #3B82F6; }
      .chart-line { stroke: #1D4ED8; stroke-width: 3px; fill: none; }
    </style>
  </defs>

  <!-- BACKGROUND FIGMA CANVAS -->
  <rect width="1800" height="1000" class="bg-canvas" />

  <!-- CANVAS ANNOTATIONS -->
  <text x="50" y="40" fill="#94A3B8" font-size="20" font-weight="700">Siliwangi Rental — Figma Wireframe Design Board 3 (Filament Admin Dashboard)</text>
  <text x="50" y="65" fill="#64748B" font-size="14">Drag and drop this SVG file directly into Figma to import editable frames, shapes, and texts.</text>

  <!-- ==================== SCREEN: BACKEND SYSTEM PANEL ==================== -->
  <g id="Frame_5_Admin_Dashboard" transform="translate(50, 100)">
    <!-- Main Screen Container -->
    <rect width="1700" height="850" class="bg-screen" rx="12" />
    <rect width="1700" height="850" class="border-cool" rx="12" />

    <!-- Browser Header Bar -->
    <g id="Browser_Header_5">
      <circle cx="20" cy="20" r="6" fill="#EF4444" />
      <circle cx="40" cy="20" r="6" fill="#F59E0B" />
      <circle cx="60" cy="20" r="6" fill="#10B981" />
      <rect x="100" y="8" width="1000" height="24" rx="6" fill="#E2E8F0" stroke="#CBD5E1" stroke-width="1" />
      <text x="120" y="24" class="text-muted" font-size="11">https://siliwangirental.com/admin/dashboard</text>
      <line x1="0" y1="40" x2="1700" y2="40" stroke="#E2E8F0" stroke-width="1" />
    </g>

    <!-- SIDEBAR NAVIGATION (LEFT) -->
    <g id="Sidebar" transform="translate(15, 55)">
      <rect width="250" height="780" class="sidebar-bg" rx="12" />
      
      <!-- Brand Logo -->
      <text x="25" y="40" fill="#FFFFFF" font-size="18" font-weight="800">Siliwangi Rental</text>
      <text x="25" y="58" fill="#94A3B8" font-size="11" font-weight="600">FILAMENT ADMIN PANEL</text>
      <line x1="15" y1="80" x2="235" y2="80" stroke="#334155" stroke-width="1" />

      <!-- Branch Scoper / Store Selector -->
      <g transform="translate(15, 100)">
        <rect width="220" height="42" rx="8" fill="#0F172A" />
        <circle cx="25" cy="21" r="5" fill="#10B981" />
        <text x="42" y="26" fill="#F1F5F9" font-size="12" font-weight="700">Store Jakarta Pusat</text>
      </g>

      <!-- Sidebar Menu List -->
      <g transform="translate(15, 165)" font-size="13" font-weight="600">
        <!-- Active item (Dashboard) -->
        <g>
          <rect width="220" height="36" class="sidebar-active" rx="6" />
          <text x="15" y="22" fill="#FFFFFF">Dashboard Utama</text>
        </g>

        <!-- Other menu items -->
        <text x="15" y="65" fill="#94A3B8">Manajemen Cars (Armada)</text>
        <text x="15" y="105" fill="#94A3B8">Data Bookings (Sewa)</text>
        <text x="15" y="145" fill="#94A3B8">Jadwal Penyewaan</text>
        <text x="15" y="185" fill="#94A3B8">Pengelolaan Drivers</text>
        <text x="15" y="225" fill="#94A3B8">Cabang Stores</text>
        <text x="15" y="265" fill="#94A3B8">Laporan Pembayaran</text>
        <text x="15" y="305" fill="#94A3B8">Laporan Keuangan</text>
        <text x="15" y="345" fill="#94A3B8">Denda &amp; Kerusakan</text>
        <text x="15" y="385" fill="#94A3B8">Manajemen Pelanggan</text>
        <text x="15" y="425" fill="#94A3B8">User &amp; Spatie Roles</text>
        <text x="15" y="465" fill="#94A3B8">Keuangan Pengeluaran</text>
      </g>
    </g>

    <!-- CONTENT AREA HEADER/TOPBAR -->
    <g id="Topbar_Header" transform="translate(280, 40)">
      <line x1="0" y1="45" x2="1420" y2="45" stroke="#E2E8F0" stroke-width="1" />
      <text x="20" y="28" class="text-primary" font-size="16" font-weight="700">Dashboard</text>
      
      <!-- User profile & status -->
      <g transform="translate(1220, 10)">
        <rect width="160" height="28" rx="14" fill="#E2E8F0" />
        <circle cx="16" cy="14" r="10" fill="#64748B" />
        <text x="35" y="18" class="text-primary" font-size="11" font-weight="700">Super Admin (IT)</text>
      </g>
    </g>

    <!-- CONTENT BODY (DASHBOARD METRICS AND WIDGETS) -->
    <g id="Content_Widgets" transform="translate(280, 100)">
      
      <!-- ROW 1: METRIC KPI WIDGETS -->
      <g id="KPI_Widgets">
        <!-- Widget 1: Revenue -->
        <g transform="translate(20, 0)">
          <rect width="320" height="110" class="card-bg" rx="12" />
          <text x="20" y="32" class="text-muted" font-size="12" font-weight="600">PENDAPATAN BULAN INI</text>
          <text x="20" y="65" class="text-primary" font-size="22" font-weight="800">Rp 48.950.000</text>
          <text x="20" y="90" fill="#10B981" font-size="11" font-weight="600">▲ +12.4% dari bulan lalu</text>
        </g>

        <!-- Widget 2: Booking Selesai -->
        <g transform="translate(365, 0)">
          <rect width="320" height="110" class="card-bg" rx="12" />
          <text x="20" y="32" class="text-muted" font-size="12" font-weight="600">BOOKING COMPLETED</text>
          <text x="20" y="65" class="text-primary" font-size="22" font-weight="800">142 Transaksi</text>
          <text x="20" y="90" fill="#10B981" font-size="11" font-weight="600">▲ +8.2% minggu ini</text>
        </g>

        <!-- Widget 3: Cars Available -->
        <g transform="translate(710, 0)">
          <rect width="320" height="110" class="card-bg" rx="12" />
          <text x="20" y="32" class="text-muted" font-size="12" font-weight="600">ARMADA AKTIF (READY)</text>
          <text x="20" y="65" class="text-primary" font-size="22" font-weight="800">18 / 24 Unit Mobil</text>
          <text x="20" y="90" fill="#3B82F6" font-size="11" font-weight="600">6 unit dalam persewaan/servis</text>
        </g>

        <!-- Widget 4: Pending Approval -->
        <g transform="translate(1055, 0)">
          <rect width="320" height="110" class="card-bg" rx="12" />
          <text x="20" y="32" class="text-muted" font-size="12" font-weight="600">BOOKING PENDING APPROVAL</text>
          <text x="20" y="65" fill="#EF4444" font-size="22" font-weight="800">9 Permintaan</text>
          <text x="20" y="90" fill="#F59E0B" font-size="11" font-weight="600">⚠ Butuh verifikasi dokumen jaminan</text>
        </g>
      </g>

      <!-- ROW 2: GRAPH/CHART WIDGETS -->
      <g id="Chart_Widgets" transform="translate(20, 140)">
        <!-- Chart 1: Revenue Line Graph -->
        <g>
          <rect width="670" height="240" class="card-bg" rx="12" />
          <text x="20" y="30" class="text-primary" font-size="14" font-weight="700">Grafik Penjualan Mingguan (Store Jakarta Pusat)</text>
          <line x1="50" y1="200" x2="620" y2="200" stroke="#CBD5E1" stroke-width="1.5" />
          <line x1="50" y1="80" x2="50" y2="200" stroke="#CBD5E1" stroke-width="1.5" />
          
          <!-- Chart curve -->
          <path d="M50,180 Q150,120 250,150 T450,90 T620,60" class="chart-line" />
          <!-- Dots on chart -->
          <circle cx="50" cy="180" r="4" fill="#1D4ED8" />
          <circle cx="250" cy="150" r="4" fill="#1D4ED8" />
          <circle cx="450" cy="90" r="4" fill="#1D4ED8" />
          <circle cx="620" cy="60" r="4" fill="#1D4ED8" />
        </g>

        <!-- Chart 2: Status Distribusi Armada -->
        <g transform="translate(710, 0)">
          <rect width="665" height="240" class="card-bg" rx="12" />
          <text x="20" y="30" class="text-primary" font-size="14" font-weight="700">Rasio Kesiapan Armada (Car Ratio)</text>
          <!-- Pie chart placeholder representation -->
          <circle cx="160" cy="130" r="60" fill="none" stroke="#E2E8F0" stroke-width="30" />
          <circle cx="160" cy="130" r="60" fill="none" stroke="#10B981" stroke-width="30" stroke-dasharray="280, 376" />
          <circle cx="160" cy="130" r="60" fill="none" stroke="#3B82F6" stroke-width="30" stroke-dasharray="60, 376" stroke-dashoffset="-280" />
          <circle cx="160" cy="130" r="60" fill="none" stroke="#EF4444" stroke-width="30" stroke-dasharray="36, 376" stroke-dashoffset="-340" />

          <!-- Labels -->
          <g transform="translate(300, 70)" font-size="12" font-weight="600">
            <circle cx="10" cy="10" r="6" fill="#10B981" />
            <text x="25" y="14" class="text-primary">Available / Siap Sewa (75%)</text>

            <circle cx="10" cy="40" r="6" fill="#3B82F6" />
            <text x="25" y="44" class="text-primary">Sedang Disewa (15%)</text>

            <circle cx="10" cy="70" r="6" fill="#EF4444" />
            <text x="25" y="74" class="text-primary">Servis / Maintenance (10%)</text>
          </g>
        </g>
      </g>

      <!-- ROW 3: LATEST BOOKINGS TABLE -->
      <g id="Recent_Bookings_Table" transform="translate(20, 400)">
        <rect width="1355" height="320" class="card-bg" rx="12" />
        <text x="20" y="35" class="text-primary" font-size="15" font-weight="700">Daftar Antrean Verifikasi Booking &amp; Jaminan</text>
        
        <!-- Table Header -->
        <g transform="translate(20, 60)" font-size="12" font-weight="700">
          <rect width="1315" height="32" rx="4" fill="#F8FAFC" />
          <text x="15" y="20" class="text-primary">KODE BOOKING</text>
          <text x="160" y="20" class="text-primary">NAMA PELANGGAN</text>
          <text x="380" y="20" class="text-primary">UNIT MOBIL</text>
          <text x="600" y="20" class="text-primary">RENTANG SEWA</text>
          <text x="840" y="20" class="text-primary">TOTAL BIAYA</text>
          <text x="1000" y="20" class="text-primary">STATUS PEMBAYARAN</text>
          <text x="1180" y="20" class="text-primary">AKSI</text>
        </g>

        <!-- Table Row 1 -->
        <g transform="translate(20, 102)" font-size="12">
          <text x="15" y="20" class="text-brand" font-weight="700">#SR-9042</text>
          <text x="160" y="20" class="text-primary" font-weight="600">Ahmad Subarjo</text>
          <text x="380" y="20" class="text-muted">Toyota Avanza (B 1234 XYZ)</text>
          <text x="600" y="20" class="text-muted">30 May 2026 - 02 Jun 2026</text>
          <text x="840" y="20" class="text-primary" font-weight="700">Rp 1.350.000</text>
          
          <rect x="1000" y="5" width="80" height="20" class="btn-success" rx="6" />
          <text x="1012" y="19" fill="#FFFFFF" font-size="10" font-weight="700">SETTLED</text>

          <rect x="1180" y="4" width="90" height="22" class="btn-primary" rx="6" />
          <text x="1195" y="19" fill="#FFFFFF" font-size="10" font-weight="700">VERIFIKASI</text>
          <line x1="0" y1="35" x2="1315" y2="35" stroke="#F1F5F9" stroke-width="1" />
        </g>

        <!-- Table Row 2 -->
        <g transform="translate(20, 147)" font-size="12">
          <text x="15" y="20" class="text-brand" font-weight="700">#SR-9041</text>
          <text x="160" y="20" class="text-primary" font-weight="600">Siti Rahmawati</text>
          <text x="380" y="20" class="text-muted">Mitsubishi Pajero (B 8888 OK)</text>
          <text x="600" y="20" class="text-muted">01 Jun 2026 - 05 Jun 2026</text>
          <text x="840" y="20" class="text-primary" font-weight="700">Rp 3.800.000</text>
          
          <rect x="1000" y="5" width="80" height="20" class="btn-danger" rx="6" />
          <text x="1018" y="19" fill="#FFFFFF" font-size="10" font-weight="700">UNPAID</text>

          <rect x="1180" y="4" width="90" height="22" class="btn-primary" rx="6" />
          <text x="1195" y="19" fill="#FFFFFF" font-size="10" font-weight="700">VERIFIKASI</text>
          <line x1="0" y1="35" x2="1315" y2="35" stroke="#F1F5F9" stroke-width="1" />
        </g>

        <!-- Table Row 3 -->
        <g transform="translate(20, 192)" font-size="12">
          <text x="15" y="20" class="text-brand" font-weight="700">#SR-9040</text>
          <text x="160" y="20" class="text-primary" font-weight="600">Dian Wijaya</text>
          <text x="380" y="20" class="text-muted">Hyundai Ioniq 5 (B 9999 EV)</text>
          <text x="600" y="20" class="text-muted">30 May 2026 - 31 May 2026</text>
          <text x="840" y="20" class="text-primary" font-weight="700">Rp 1.200.000</text>
          
          <rect x="1000" y="5" width="80" height="20" class="btn-success" rx="6" />
          <text x="1012" y="19" fill="#FFFFFF" font-size="10" font-weight="700">SETTLED</text>

          <rect x="1180" y="4" width="90" height="22" class="btn-primary" rx="6" />
          <text x="1195" y="19" fill="#FFFFFF" font-size="10" font-weight="700">VERIFIKASI</text>
          <line x1="0" y1="35" x2="1315" y2="35" stroke="#F1F5F9" stroke-width="1" />
        </g>
      </g>
    </g>
  </g>
</svg>
