<svg xmlns="http://www.w3.org/2000/svg" viewBox="0 0 2560 1000" width="2560" height="1000" style="background-color: #0F172A; font-family: 'Inter', sans-serif;">
  <!-- Definitions for Styling & Effects -->
  <defs>
    <style>
      .bg-canvas { fill: #0F172A; }
      .bg-screen { fill: #FFFFFF; }
      .border-cool { stroke: #E2E8F0; stroke-width: 1px; fill: none; }
      .text-primary { fill: #0F172A; font-family: 'Inter', sans-serif; }
      .text-muted { fill: #64748B; font-family: 'Inter', sans-serif; }
      .text-brand { fill: #1D4ED8; font-weight: bold; font-family: 'Inter', sans-serif; }
      .btn-primary { fill: #1D4ED8; }
      .btn-accent { fill: #F59E0B; }
      .btn-outline { fill: #FFFFFF; stroke: #1D4ED8; stroke-width: 1.5px; }
      .card-bg { fill: #F8FAFC; stroke: #F1F5F9; stroke-width: 1px; }
      .wireframe-placeholder { fill: #E2E8F0; stroke: #CBD5E1; stroke-width: 1px; }
      .wireframe-x { stroke: #94A3B8; stroke-width: 1px; }
    </style>
  </defs>

  <!-- BACKGROUND FIGMA CANVAS -->
  <rect width="2560" height="1000" class="bg-canvas" />

  <!-- CANVAS ANNOTATIONS -->
  <text x="50" y="40" fill="#94A3B8" font-size="20" font-weight="700">Siliwangi Rental — Figma Wireframe Design Board (Fully Editable Vectors)</text>
  <text x="50" y="65" fill="#64748B" font-size="14">Drag and drop this SVG file directly into Figma to import editable frames, shapes, and texts.</text>

  <!-- ==================== SCREEN 1: HOMEPAGE (LEFT) ==================== -->
  <g id="Frame_1_Homepage" transform="translate(50, 90)">
    <!-- Browser Screen Container -->
    <rect width="1150" height="850" class="bg-screen" rx="12" />
    <rect width="1150" height="850" class="border-cool" rx="12" />

    <!-- Browser Header / URL Bar -->
    <g id="Browser_Header">
      <circle cx="20" cy="20" r="6" fill="#EF4444" />
      <circle cx="40" cy="20" r="6" fill="#F59E0B" />
      <circle cx="60" cy="20" r="6" fill="#10B981" />
      <rect x="100" y="8" width="800" height="24" rx="6" fill="#F1F5F9" stroke="#E2E8F0" stroke-width="1" />
      <text x="120" y="24" class="text-muted" font-size="11">https://siliwangirental.com/</text>
      <line x1="0" y1="40" x2="1150" y2="40" stroke="#E2E8F0" stroke-width="1" />
    </g>

    <!-- Navigation Bar -->
    <g id="Navbar" transform="translate(0, 40)">
      <text x="40" y="32" class="text-brand" font-size="20" font-weight="800">SILIWANGI RENTAL</text>
      <g id="Nav_Links" font-size="14" font-weight="500">
        <text x="350" y="30" class="text-primary" font-weight="700">Home</text>
        <text x="430" y="30" class="text-muted">Fleet Catalog</text>
        <text x="560" y="30" class="text-muted">About Us</text>
        <text x="660" y="30" class="text-muted">FAQ</text>
        <text x="730" y="30" class="text-muted">Contact</text>
      </g>
      <!-- Notification Icon & CTA -->
      <circle cx="950" cy="26" r="16" fill="#F1F5F9" />
      <path d="M944,29 L956,29 M950,17 L950,29" stroke="#64748B" stroke-width="2" fill="none" />
      <rect x="990" y="10" width="120" height="32" class="btn-primary" rx="8" />
      <text x="1022" y="31" fill="#FFFFFF" font-size="13" font-weight="600">Sign In</text>
      <line x1="0" y1="52" x2="1150" y2="52" stroke="#F1F5F9" stroke-width="1" />
    </g>

    <!-- Hero Section -->
    <g id="Hero_Section" transform="translate(0, 92)">
      <!-- Glassmorphic Background Card -->
      <rect x="40" y="40" width="550" height="320" class="card-bg" rx="12" />
      <text x="70" y="100" class="text-primary" font-size="36" font-weight="800">Premium Car Rental</text>
      <text x="70" y="145" class="text-primary" font-size="36" font-weight="800">For Your Journey.</text>
      <text x="70" y="190" class="text-muted" font-size="15" width="400">
        Nikmati perjalanan berkendara terbaik dengan armada terawat, 
      </text>
      <text x="70" y="215" class="text-muted" font-size="15">
        layanan driver profesional, serta proses booking instan 5-step.
      </text>
      <rect x="70" y="260" width="180" height="48" class="btn-accent" rx="8" />
      <text x="110" y="290" fill="#0F172A" font-size="15" font-weight="700">Booking Sekarang</text>

      <!-- Hero Car Image Placeholder -->
      <g id="Hero_Car_Placeholder" transform="translate(640, 40)">
        <rect width="470" height="320" class="wireframe-placeholder" rx="12" />
        <line x1="0" y1="0" x2="470" y2="320" class="wireframe-x" />
        <line x1="0" y1="320" x2="470" y2="0" class="wireframe-x" />
        <rect x="175" y="140" width="120" height="40" rx="6" fill="#FFFFFF" stroke="#94A3B8" />
        <text x="210" y="165" class="text-muted" font-size="14" font-weight="600">IMAGE</text>
      </g>
    </g>

    <!-- Floating Search Bar -->
    <g id="Quick_Search_Bar" transform="translate(40, 470)">
      <rect width="1070" height="90" rx="16" fill="#FFFFFF" stroke="#1D4ED8" stroke-width="1.5" />
      
      <g transform="translate(30, 20)">
        <text x="0" y="15" class="text-muted" font-size="12" font-weight="600">LOKASI PENJEMPUTAN</text>
        <rect x="0" y="25" width="220" height="36" rx="6" fill="#F8FAFC" stroke="#E2E8F0" />
        <text x="15" y="48" class="text-primary" font-size="13">Jakarta Pusat (Kantor Pusat)</text>
      </g>

      <g transform="translate(280, 20)">
        <text x="0" y="15" class="text-muted" font-size="12" font-weight="600">TANGGAL MULAI</text>
        <rect x="0" y="25" width="200" height="36" rx="6" fill="#F8FAFC" stroke="#E2E8F0" />
        <text x="15" y="48" class="text-primary" font-size="13">30 May 2026</text>
      </g>

      <g transform="translate(510, 20)">
        <text x="0" y="15" class="text-muted" font-size="12" font-weight="600">TANGGAL SELESAI</text>
        <rect x="0" y="25" width="200" height="36" rx="6" fill="#F8FAFC" stroke="#E2E8F0" />
        <text x="15" y="48" class="text-primary" font-size="13">02 Jun 2026</text>
      </g>

      <g transform="translate(740, 20)">
        <text x="0" y="15" class="text-muted" font-size="12" font-weight="600">TIPE KENDARAAN</text>
        <rect x="0" y="25" width="160" height="36" rx="6" fill="#F8FAFC" stroke="#E2E8F0" />
        <text x="15" y="48" class="text-primary" font-size="13">Semua Tipe</text>
      </g>

      <rect x="930" y="20" width="110" height="50" class="btn-primary" rx="8" />
      <text x="965" y="50" fill="#FFFFFF" font-size="15" font-weight="700">CARI</text>
    </g>

    <!-- Featured Cars Header -->
    <g id="Featured_Header" transform="translate(40, 595)">
      <text x="0" y="25" class="text-primary" font-size="22" font-weight="800">Armada Unggulan</text>
      <text x="0" y="48" class="text-muted" font-size="13">Pilihan mobil terbaik paling populer yang siap untuk disewa</text>
      <text x="1000" y="30" class="text-brand" font-size="14" font-weight="700">Lihat Semua →</text>
    </g>

    <!-- Featured Cars Cards Grid -->
    <g id="Featured_Grid" transform="translate(40, 660)">
      <!-- Card 1 -->
      <g transform="translate(0, 0)">
        <rect width="250" height="160" class="card-bg" rx="12" />
        <rect width="250" height="90" class="wireframe-placeholder" rx="12" />
        <line x1="0" y1="0" x2="250" y2="90" class="wireframe-x" />
        <line x1="0" y1="90" x2="250" y2="0" class="wireframe-x" />
        
        <text x="15" y="115" class="text-primary" font-size="14" font-weight="700">Toyota Avanza Veloz</text>
        <text x="15" y="132" class="text-muted" font-size="11">MPV • Automatic • 7 Seats</text>
        <text x="15" y="150" class="text-brand" font-size="12" font-weight="700">Rp 450.000 / Hari</text>
      </g>

      <!-- Card 2 -->
      <g transform="translate(275, 0)">
        <rect width="250" height="160" class="card-bg" rx="12" />
        <rect width="250" height="90" class="wireframe-placeholder" rx="12" />
        <line x1="0" y1="0" x2="250" y2="90" class="wireframe-x" />
        <line x1="0" y1="90" x2="250" y2="0" class="wireframe-x" />
        
        <text x="15" y="115" class="text-primary" font-size="14" font-weight="700">Mitsubishi Pajero Sport</text>
        <text x="15" y="132" class="text-muted" font-size="11">SUV • Automatic • 7 Seats</text>
        <text x="15" y="150" class="text-brand" font-size="12" font-weight="700">Rp 950.000 / Hari</text>
      </g>

      <!-- Card 3 -->
      <g transform="translate(550, 0)">
        <rect width="250" height="160" class="card-bg" rx="12" />
        <rect width="250" height="90" class="wireframe-placeholder" rx="12" />
        <line x1="0" y1="0" x2="250" y2="90" class="wireframe-x" />
        <line x1="0" y1="90" x2="250" y2="0" class="wireframe-x" />
        
        <text x="15" y="115" class="text-primary" font-size="14" font-weight="700">Honda Civic RS</text>
        <text x="15" y="132" class="text-muted" font-size="11">Sedan • Automatic • 5 Seats</text>
        <text x="15" y="150" class="text-brand" font-size="12" font-weight="700">Rp 800.000 / Hari</text>
      </g>

      <!-- Card 4 -->
      <g transform="translate(825, 0)">
        <rect width="250" height="160" class="card-bg" rx="12" />
        <rect width="250" height="90" class="wireframe-placeholder" rx="12" />
        <line x1="0" y1="0" x2="250" y2="90" class="wireframe-x" />
        <line x1="0" y1="90" x2="250" y2="0" class="wireframe-x" />
        
        <text x="15" y="115" class="text-primary" font-size="14" font-weight="700">Hyundai Ioniq 5 (EV)</text>
        <text x="15" y="132" class="text-muted" font-size="11">Electric • Automatic • 5 Seats</text>
        <text x="15" y="150" class="text-brand" font-size="12" font-weight="700">Rp 1.200.000 / Hari</text>
      </g>
    </g>
  </g>

  <!-- ==================== SCREEN 2: CAR CATALOG (RIGHT) ==================== -->
  <g id="Frame_2_Catalog" transform="translate(1300, 90)">
    <!-- Browser Screen Container -->
    <rect width="1150" height="850" class="bg-screen" rx="12" />
    <rect width="1150" height="850" class="border-cool" rx="12" />

    <!-- Browser Header / URL Bar -->
    <g id="Browser_Header_2">
      <circle cx="20" cy="20" r="6" fill="#EF4444" />
      <circle cx="40" cy="20" r="6" fill="#F59E0B" />
      <circle cx="60" cy="20" r="6" fill="#10B981" />
      <rect x="100" y="8" width="800" height="24" rx="6" fill="#F1F5F9" stroke="#E2E8F0" stroke-width="1" />
      <text x="120" y="24" class="text-muted" font-size="11">https://siliwangirental.com/catalog</text>
      <line x1="0" y1="40" x2="1150" y2="40" stroke="#E2E8F0" stroke-width="1" />
    </g>

    <!-- Navigation Bar -->
    <g id="Navbar_2" transform="translate(0, 40)">
      <text x="40" y="32" class="text-brand" font-size="20" font-weight="800">SILIWANGI RENTAL</text>
      <g id="Nav_Links_2" font-size="14" font-weight="500">
        <text x="350" y="30" class="text-muted">Home</text>
        <text x="430" y="30" class="text-brand" font-weight="700">Fleet Catalog</text>
        <text x="560" y="30" class="text-muted">About Us</text>
        <text x="660" y="30" class="text-muted">FAQ</text>
        <text x="730" y="30" class="text-muted">Contact</text>
      </g>
      <!-- Notification Icon & CTA -->
      <circle cx="950" cy="26" r="16" fill="#F1F5F9" />
      <path d="M944,29 L956,29 M950,17 L950,29" stroke="#64748B" stroke-width="2" fill="none" />
      <rect x="990" y="10" width="120" height="32" class="btn-primary" rx="8" />
      <text x="1022" y="31" fill="#FFFFFF" font-size="13" font-weight="600">Sign In</text>
      <line x1="0" y1="52" x2="1150" y2="52" stroke="#F1F5F9" stroke-width="1" />
    </g>

    <!-- Page Title & Search bar -->
    <g id="Catalog_Header" transform="translate(40, 110)">
      <text x="0" y="25" class="text-primary" font-size="24" font-weight="800">Katalog Armada Kendaraan</text>
      <text x="0" y="46" class="text-muted" font-size="13">Temukan armada yang sesuai dengan kebutuhan perjalanan Anda</text>
      <rect x="720" y="8" width="350" height="36" rx="8" fill="#F8FAFC" stroke="#CBD5E1" />
      <text x="740" y="31" class="text-muted" font-size="13">Cari model atau merk mobil...</text>
    </g>

    <!-- Content Split Layout -->
    <!-- SIDEBAR FILTER (LEFT) -->
    <g id="Sidebar_Filter" transform="translate(40, 180)">
      <rect width="260" height="600" rx="12" fill="#F8FAFC" stroke="#E2E8F0" stroke-width="1" />
      <text x="20" y="30" class="text-primary" font-size="15" font-weight="700">Filter Pencarian</text>
      <line x1="20" y1="45" x2="240" y2="45" stroke="#E2E8F0" stroke-width="1" />

      <!-- Kategori Filter -->
      <g transform="translate(20, 65)">
        <text x="0" y="15" class="text-primary" font-size="13" font-weight="600">Kategori</text>
        <circle cx="10" cy="35" r="7" fill="#1D4ED8" /> <!-- Checked Radio -->
        <circle cx="10" cy="35" r="3" fill="#FFFFFF" />
        <text x="25" y="40" class="text-primary" font-size="12">Semua Kategori</text>

        <circle cx="10" cy="60" r="7" fill="none" stroke="#CBD5E1" stroke-width="1.5" />
        <text x="25" y="65" class="text-muted" font-size="12">Pribadi (MPV/SUV)</text>

        <circle cx="10" cy="85" r="7" fill="none" stroke="#CBD5E1" stroke-width="1.5" />
        <text x="25" y="90" class="text-muted" font-size="12">Perusahaan (Premium/Bus)</text>
      </g>

      <!-- Transmisi Filter -->
      <g transform="translate(20, 180)">
        <text x="0" y="15" class="text-primary" font-size="13" font-weight="600">Transmisi</text>
        
        <rect x="0" y="28" width="14" height="14" rx="3" fill="#1D4ED8" />
        <path d="M3,35 L6,38 L11,31" stroke="#FFFFFF" stroke-width="1.5" fill="none" /> <!-- Checked box -->
        <text x="25" y="40" class="text-primary" font-size="12">Automatic</text>

        <rect x="0" y="53" width="14" height="14" rx="3" fill="none" stroke="#CBD5E1" stroke-width="1.5" />
        <text x="25" y="65" class="text-muted" font-size="12">Manual</text>
      </g>

      <!-- Harga Range Filter -->
      <g transform="translate(20, 275)">
        <text x="0" y="15" class="text-primary" font-size="13" font-weight="600">Rentang Harga per Hari</text>
        <!-- Range Slider placeholder -->
        <line x1="5" y1="35" x2="215" y2="35" stroke="#E2E8F0" stroke-width="4" stroke-linecap="round" />
        <line x1="5" y1="35" x2="150" y2="35" stroke="#1D4ED8" stroke-width="4" stroke-linecap="round" />
        <circle cx="5" cy="35" r="8" fill="#1D4ED8" />
        <circle cx="150" cy="35" r="8" fill="#1D4ED8" />
        <text x="0" y="65" class="text-muted" font-size="11">Rp 200rb - Rp 1.5jt+</text>
      </g>

      <rect x="20" y="520" width="220" height="40" class="btn-primary" rx="8" />
      <text x="92" y="545" fill="#FFFFFF" font-size="13" font-weight="700">Terapkan Filter</text>
    </g>

    <!-- CARS GRID (RIGHT) -->
    <g id="Cars_Catalog_Grid" transform="translate(325, 180)">
      <!-- Car Item 1 -->
      <g transform="translate(0, 0)">
        <rect width="240" height="280" class="card-bg" rx="12" />
        <rect width="240" height="130" class="wireframe-placeholder" rx="12" />
        <line x1="0" y1="0" x2="240" y2="130" class="wireframe-x" />
        <line x1="0" y1="130" x2="240" y2="0" class="wireframe-x" />
        <text x="15" y="160" class="text-primary" font-size="15" font-weight="700">Toyota Avanza</text>
        <text x="15" y="178" class="text-muted" font-size="12">Transmisi: Automatic</text>
        <text x="15" y="196" class="text-muted" font-size="12">Kapasitas: 7 Kursi</text>
        <text x="15" y="222" class="text-brand" font-size="14" font-weight="700">Rp 450.000 / Hari</text>
        
        <rect x="15" y="238" width="100" height="30" class="btn-outline" rx="8" />
        <text x="48" y="258" fill="#1D4ED8" font-size="11" font-weight="700">Detail</text>
        
        <rect x="125" y="238" width="100" height="30" class="btn-accent" rx="8" />
        <text x="157" y="258" fill="#0F172A" font-size="11" font-weight="700">Book</text>
      </g>

      <!-- Car Item 2 -->
      <g transform="translate(260, 0)">
        <rect width="240" height="280" class="card-bg" rx="12" />
        <rect width="240" height="130" class="wireframe-placeholder" rx="12" />
        <line x1="0" y1="0" x2="240" y2="130" class="wireframe-x" />
        <line x1="0" y1="130" x2="240" y2="0" class="wireframe-x" />
        <text x="15" y="160" class="text-primary" font-size="15" font-weight="700">Daihatsu Xenia</text>
        <text x="15" y="178" class="text-muted" font-size="12">Transmisi: Manual</text>
        <text x="15" y="196" class="text-muted" font-size="12">Kapasitas: 7 Kursi</text>
        <text x="15" y="222" class="text-brand" font-size="14" font-weight="700">Rp 400.000 / Hari</text>
        
        <rect x="15" y="238" width="100" height="30" class="btn-outline" rx="8" />
        <text x="48" y="258" fill="#1D4ED8" font-size="11" font-weight="700">Detail</text>
        
        <rect x="125" y="238" width="100" height="30" class="btn-accent" rx="8" />
        <text x="157" y="258" fill="#0F172A" font-size="11" font-weight="700">Book</text>
      </g>

      <!-- Car Item 3 -->
      <g transform="translate(520, 0)">
        <rect width="240" height="280" class="card-bg" rx="12" />
        <rect width="240" height="130" class="wireframe-placeholder" rx="12" />
        <line x1="0" y1="0" x2="240" y2="130" class="wireframe-x" />
        <line x1="0" y1="130" x2="240" y2="0" class="wireframe-x" />
        <text x="15" y="160" class="text-primary" font-size="15" font-weight="700">Mitsubishi Xpander</text>
        <text x="15" y="178" class="text-muted" font-size="12">Transmisi: Automatic</text>
        <text x="15" y="196" class="text-muted" font-size="12">Kapasitas: 7 Kursi</text>
        <text x="15" y="222" class="text-brand" font-size="14" font-weight="700">Rp 550.000 / Hari</text>
        
        <rect x="15" y="238" width="100" height="30" class="btn-outline" rx="8" />
        <text x="48" y="258" fill="#1D4ED8" font-size="11" font-weight="700">Detail</text>
        
        <rect x="125" y="238" width="100" height="30" class="btn-accent" rx="8" />
        <text x="157" y="258" fill="#0F172A" font-size="11" font-weight="700">Book</text>
      </g>

      <!-- Car Item 4 (Row 2) -->
      <g transform="translate(0, 300)">
        <rect width="240" height="280" class="card-bg" rx="12" />
        <rect width="240" height="130" class="wireframe-placeholder" rx="12" />
        <line x1="0" y1="0" x2="240" y2="130" class="wireframe-x" />
        <line x1="0" y1="130" x2="240" y2="0" class="wireframe-x" />
        <text x="15" y="160" class="text-primary" font-size="15" font-weight="700">Honda Brio RS</text>
        <text x="15" y="178" class="text-muted" font-size="12">Transmisi: Automatic</text>
        <text x="15" y="196" class="text-muted" font-size="12">Kapasitas: 5 Kursi</text>
        <text x="15" y="222" class="text-brand" font-size="14" font-weight="700">Rp 350.000 / Hari</text>
        
        <rect x="15" y="238" width="100" height="30" class="btn-outline" rx="8" />
        <text x="48" y="258" fill="#1D4ED8" font-size="11" font-weight="700">Detail</text>
        
        <rect x="125" y="238" width="100" height="30" class="btn-accent" rx="8" />
        <text x="157" y="258" fill="#0F172A" font-size="11" font-weight="700">Book</text>
      </g>

      <!-- Car Item 5 (Row 2) -->
      <g transform="translate(260, 300)">
        <rect width="240" height="280" class="card-bg" rx="12" />
        <rect width="240" height="130" class="wireframe-placeholder" rx="12" />
        <line x1="0" y1="0" x2="240" y2="130" class="wireframe-x" />
        <line x1="0" y1="130" x2="240" y2="0" class="wireframe-x" />
        <text x="15" y="160" class="text-primary" font-size="15" font-weight="700">Toyota Fortuner VRZ</text>
        <text x="15" y="178" class="text-muted" font-size="12">Transmisi: Automatic</text>
        <text x="15" y="196" class="text-muted" font-size="12">Kapasitas: 7 Kursi</text>
        <text x="15" y="222" class="text-brand" font-size="14" font-weight="700">Rp 1.000.000 / Hari</text>
        
        <rect x="15" y="238" width="100" height="30" class="btn-outline" rx="8" />
        <text x="48" y="258" fill="#1D4ED8" font-size="11" font-weight="700">Detail</text>
        
        <rect x="125" y="238" width="100" height="30" class="btn-accent" rx="8" />
        <text x="157" y="258" fill="#0F172A" font-size="11" font-weight="700">Book</text>
      </g>

      <!-- Car Item 6 (Row 2) -->
      <g transform="translate(520, 300)">
        <rect width="240" height="280" class="card-bg" rx="12" />
        <rect width="240" height="130" class="wireframe-placeholder" rx="12" />
        <line x1="0" y1="0" x2="240" y2="130" class="wireframe-x" />
        <line x1="0" y1="130" x2="240" y2="0" class="wireframe-x" />
        <text x="15" y="160" class="text-primary" font-size="15" font-weight="700">Alphard Transformer</text>
        <text x="15" y="178" class="text-muted" font-size="12">Transmisi: Automatic</text>
        <text x="15" y="196" class="text-muted" font-size="12">Kapasitas: 7 Kursi</text>
        <text x="15" y="222" class="text-brand" font-size="14" font-weight="700">Rp 2.500.000 / Hari</text>
        
        <rect x="15" y="238" width="100" height="30" class="btn-outline" rx="8" />
        <text x="48" y="258" fill="#1D4ED8" font-size="11" font-weight="700">Detail</text>
        
        <rect x="125" y="238" width="100" height="30" class="btn-accent" rx="8" />
        <text x="157" y="258" fill="#0F172A" font-size="11" font-weight="700">Book</text>
      </g>
    </g>
  </g>
</svg>
